# xmcd
#
# Track frame offsets:
#	182
#	11350
#	24430
#	37835
#	48000
#	58707
#	69890
#	83337
#	95557
#	105750
#	117077
#	128157
#	143485
#	159577
#	171837
#	183097
#	197475
#	207410
#	218357
#	230460
#
# Disc length: 3241 seconds
# Revision: 0
# Processed by: cddbd v1.5.2PL0 Copyright (c) Steve Scherf et al.
# Submitted via: dBpowerAMP V12.0
#
DISCID=e70ca714
DTITLE=Various Artist - Golden Country Volume 4
DYEAR=1993
DGENRE=Country
TTITLE0=Conway Twitty - Have I Been Away Too Long
TTITLE1=Stu Stevens - Love Me Tender
TTITLE2=George Jones - Cold Cold Heart
TTITLE3=Waylon Jennings - White Lightning
TTITLE4=Donna Fargo - All Thats Keeping Me Alive
TTITLE5=Rex allen Jnr - Dream On Texas Ladies
TTITLE6=Tennessee - Kentucky Sundown
TTITLE7=Stonewall Jackson - Ol' Blue
TTITLE8=Frankie Laine - Mule Skinner Blues
TTITLE9=Johnny Cash - Mean Eyed Cat
TTITLE10=Waylon Jennings - Sally Was A Good Old Girl
TTITLE11=Ray Pillow - How Do I Hide From A Memory
TTITLE12=Rex Allen Jnr - Memory Train
TTITLE13=Ray Price - Rain And Tears
TTITLE14=George Jones - I Can't Change Overnight
TTITLE15=Billy Jo Spears - I'll never Be Free
TTITLE16=Johnny Paycheck - Who Needs Your Love
TTITLE17=Ferlin Husky - Gone
TTITLE18=Conway Twitty - Sittin' In A Dim Cafe
TTITLE19=Lee Hazelwood - These Boots Are Made For Walking
EXTD=
EXTT0=
EXTT1=
EXTT2=
EXTT3=
EXTT4=
EXTT5=
EXTT6=
EXTT7=
EXTT8=
EXTT9=
EXTT10=
EXTT11=
EXTT12=
EXTT13=
EXTT14=
EXTT15=
EXTT16=
EXTT17=
EXTT18=
EXTT19=
PLAYORDER=
